<svg width="135" height="19" viewBox="0 0 135 19" fill="none" xmlns="http://www.w3.org/2000/svg">
<path d="M19.28 18.0053L24.3257 0.29212H20.0767L16.9961 13.0923L13.65 0.29212H10.7022L7.32957 13.0923L4.22247 0.29212H0L5.07228 18.0053H9.0823L12.1628 5.84241L15.2699 18.0053H19.28Z" fill="white"/>
<path d="M37.9608 18.3239C43.3251 18.3239 47.2289 14.4998 47.2289 9.16197C47.2289 3.82413 43.3251 0 37.9608 0C32.6229 0 28.7191 3.82413 28.7191 9.16197C28.7191 14.4998 32.6229 18.3239 37.9608 18.3239ZM37.9608 14.9778C34.6943 14.9778 32.5964 12.455 32.5964 9.16197C32.5964 5.84241 34.6943 3.34611 37.9608 3.34611C41.2272 3.34611 43.3517 5.84241 43.3517 9.16197C43.3517 12.455 41.2272 14.9778 37.9608 14.9778Z" fill="white"/>
<path d="M62.2505 18.3239C67.6149 18.3239 71.5187 14.4998 71.5187 9.16197C71.5187 3.82413 67.6149 0 62.2505 0C56.9127 0 53.0089 3.82413 53.0089 9.16197C53.0089 14.4998 56.9127 18.3239 62.2505 18.3239ZM62.2505 14.9778C58.9841 14.9778 56.8861 12.455 56.8861 9.16197C56.8861 5.84241 58.9841 3.34611 62.2505 3.34611C65.517 3.34611 67.6415 5.84241 67.6415 9.16197C67.6415 12.455 65.517 14.9778 62.2505 14.9778Z" fill="white"/>
<path d="M85.1328 18.0053C90.6831 18.0053 94.5338 14.4998 94.5338 9.16197C94.5338 3.82413 90.6831 0.29212 85.1328 0.29212H78.1485V18.0053H85.1328ZM85.1328 14.6857H81.9195V3.61167H85.1328C88.7711 3.61167 90.6831 6.02831 90.6831 9.16197C90.6831 12.1628 88.6383 14.6857 85.1328 14.6857Z" fill="white"/>
<path d="M113.728 18.0053V14.6857H104.964V10.6757H113.542V7.35613H104.964V3.61167H113.728V0.29212H101.193V18.0053H113.728Z" fill="white"/>
<path d="M135 18.0053L131.017 11.2599C132.929 10.8085 134.894 9.13541 134.894 6.00175C134.894 2.70876 132.636 0.29212 128.945 0.29212H120.66V18.0053H124.431V11.7114H127.192L130.671 18.0053H135ZM128.387 8.39183H124.431V3.61167H128.387C129.901 3.61167 131.043 4.51459 131.043 6.00175C131.043 7.48891 129.901 8.39183 128.387 8.39183Z" fill="white"/>
<path d="M28.9758 7.52246H71.2565V10.3179H28.9758V7.52246Z" fill="#BEA67C"/>
</svg>
